<?xml version="1.0" encoding="UTF-8"?>
<svg width="300px" height="55px" xmlns="http://www.w3.org/2000/svg" viewBox="0 0 211 39.5">
  <g fill="#000">
    <path d="M24,37.1H0V2.4h24c5.4,0,9.7,4.4,9.7,9.7c0,2.3-1.3,4.7-3.4,6.7c2.3,1.9,4.2,4.6,4.2,7.8C34.5,32.4,29.8,37.1,24,37.1z"></path>
    <path d="M193.6,37.1h-17.4V2.4h17.4c9.6,0,17.4,7.8,17.4,17.4C211,29.3,203.2,37.1,193.6,37.1z"></path>
    <path d="M122.7,37.1V2.4h20.9v20h7.9v14.8L122.7,37.1z"></path>
    <path d="M77.3,0C66.4,0,57.6,8.9,57.6,19.7c0,10.9,8.9,19.7,19.7,19.7c10.9,0,19.7-8.9,19.7-19.7C97,8.9,88.2,0,77.3,0z M71.9,18h-1.6v6.6h-4.4V18h-1.6v-3.2h7.6V18z M82,24.6h-4.2v-3.4h-1.1v3.4h-4.2v-9.7h4.2v3.6h1.1v-3.6H82V24.6z M90.3,17.7h-3.6v1.1h3.6V21h-3.6v1.1h3.6v2.5h-7.4v-9.7h7.4V17.7z"></path>
  </g>
</svg>
